<?xml version="1.0" standalone="no"?><!DOCTYPE svg PUBLIC "-//W3C//DTD SVG 1.1//EN" "http://www.w3.org/Graphics/SVG/1.1/DTD/svg11.dtd"><svg t="1758175690820" class="icon" viewBox="0 0 1031 1024" version="1.1" xmlns="http://www.w3.org/2000/svg" p-id="955" xmlns:xlink="http://www.w3.org/1999/xlink" width="257.75" height="256"><path d="M891.33921 1024H131.483327l-24.857544-12.036285c-65.414591-31.268174-104.663345-82.814872-104.663345-154.640092C0 627.980069 0 399.029002 1.046633 170.077935 1.439121 80.459946 78.497509 1.308292 166.676377 0.915804Q515.074486-0.784975 863.472595 0.915804c80.329117 0 151.500192 68.946978 160.658234 149.014437v690.25476a123.633576 123.633576 0 0 0 6.018143 26.165836v18.839402c-25.773349 67.769516-67.246199 118.26958-138.809762 138.809761zM417.475917 550.660023a168.377156 168.377156 0 0 0-32.314808 19.755206Q290.179124 663.827265 196.243772 758.80925a63.97547 63.97547 0 0 0-2.878242 92.757889 65.414591 65.414591 0 0 0 93.281206-1.177462c34.931391-32.968954 68.423662-67.769516 102.308419-101.785103 36.763-36.763 73.395171-73.787658 111.204804-111.728121 9.943018 9.419701 17.661939 16.222818 24.857545 23.418424q91.580427 90.926281 182.11422 181.983391c34.146416 34.015587 75.880925 37.155487 105.448319 8.503896s28.389932-71.563562-7.457263-107.672416q-64.106299-64.106299-128.735914-128.212597c-31.791491-31.529833-63.97547-62.667178-101.000128-98.906861 51.415868-49.322601 99.430178-95.766961 147.706146-142.080491 7.588093-7.195605 15.045356-17.661939 23.94174-19.493548 49.060943-9.943018 65.414591-51.023381 86.21643-86.870576l-54.032452-54.163281c-39.248754 19.493548-65.414591 50.107576-92.62706 88.048039-43.566117 60.573911-106.233295 107.541587-164.059793 163.274818-20.540181-21.586815-43.958605-44.089434-64.367957-69.077808a65.414591 65.414591 0 0 1-14.783697-40.033729c4.317363-94.981985-89.879647-167.72301-179.366808-129.128402 18.316085 16.091989 33.6231 31.92232 51.285039 44.74358 27.866616 20.278523 32.838124 43.566117 19.755207 75.357609-11.905455 28.913249-63.452153 43.958605-85.431456 21.455985S209.32669 324.456369 186.039095 299.337166c-24.857544 95.112815 28.913249 178.451003 113.036413 177.927686A95.766961 95.766961 0 0 1 379.404625 514.289511c7.718922 9.027213 17.53111 17.138623 38.071292 36.370512z" fill="#272325" p-id="956"></path><path d="M1024 149.930241a6.933947 6.933947 0 0 1 5.494826 1.177463v715.897279a123.633576 123.633576 0 0 1-6.018143-26.165836q0-345.781525 0.523317-690.908906z" fill="#272325" p-id="957"></path><path d="M805.384438 829.718666l-103.224223-102.831736-10.204676 9.419701c25.250032 40.818704 68.031174 67.507857 96.944423 105.579149-28.651591 16.615306-41.60368 14.914527-67.507858-10.858822q-142.080491-141.688003-283.899323-283.899323c-14.783697-14.783697-29.959882-29.174907-44.220263-44.351092-24.988374-26.165836-47.490993-47.490993-91.580427-43.958605-58.742302 4.448192-101.654274-47.098505-104.663344-117.092117A343.819088 343.819088 0 0 1 233.26843 379.404625a46.051872 46.051872 0 0 0 62.27469 16.222818A52.331672 52.331672 0 0 1 300.907116 392.487543c14.39121-5.233167 36.370512-6.672288 41.472851-16.615306A245.95886 245.95886 0 0 0 363.443465 300.907116c1.177463-7.064776-9.943018-17.138623-17.007794-24.203398-13.082918-13.082918-27.21247-24.988374-44.74358-40.949534 73.787658-6.279801 132.66079 56.779865 121.40948 123.371918a44.089434 44.089434 0 0 0 14.783698 43.566117c117.746263 117.746263 235.492526 235.492526 353.238789 352.192156 20.016865 21.063498 34.146416 43.17363 14.26038 74.834291z" fill="#272325" p-id="958"></path><path d="M418.653379 562.565478l68.946979 61.358886c-72.871854 72.741025-142.996295 143.912099-215.344832 213.774882-11.643797 11.12048-33.753929 11.382139-50.892552 16.746135l-5.494825-11.12048L348.528938 710.402453l-8.373067-9.158043c-28.913249 12.167114-46.182701 39.248754-68.292833 60.83557s-43.17363 45.005238-66.592053 69.862782c-17.792769-24.465057-12.167114-43.042801 3.27073-58.742302C278.927814 701.898556 350.098888 631.250799 418.653379 562.565478zM703.076019 327.072953l14.652868 16.353647-156.210042 155.425067L546.081002 484.06797zM811.140922 269.638942a220.44717 220.44717 0 0 1-29.829053 45.528555c-13.082918 12.428772-28.913249 27.08164-51.285039 10.466335-24.465057-18.185256-16.876964-38.071292-4.055704-55.99489 24.857544-34.931391 55.471573-34.146416 85.169796 0z" fill="#272325" p-id="959"></path></svg>